<?xml version="1.0" encoding="UTF-8"?>
<!--Generator: Apple Native CoreSVG 175-->
<!DOCTYPE svg
PUBLIC "-//W3C//DTD SVG 1.1//EN"
       "http://www.w3.org/Graphics/SVG/1.1/DTD/svg11.dtd">
<svg version="1.1" xmlns="http://www.w3.org/2000/svg" xmlns:xlink="http://www.w3.org/1999/xlink" width="3300" height="2200">
 <!--glyph: "uni1007F5.medium", point size: 100.0, font version: "17.1d1e1", template writer version: "65.1"-->
 <g id="Notes">
  <rect height="2200" id="artboard" style="fill:white;opacity:1" width="3300" x="0" y="0"/>
  <line style="fill:none;stroke:black;opacity:1;stroke-width:0.5;" x1="263" x2="3036" y1="292" y2="292"/>
  <text style="stroke:none;fill:black;font-family:sans-serif;font-size:13;font-weight:bold;" transform="matrix(1 0 0 1 263 322)">Weight/Scale Variations</text>
  <text style="stroke:none;fill:black;font-family:sans-serif;font-size:13;text-anchor:middle;" transform="matrix(1 0 0 1 559.711 322)">Ultralight</text>
  <text style="stroke:none;fill:black;font-family:sans-serif;font-size:13;text-anchor:middle;" transform="matrix(1 0 0 1 856.422 322)">Thin</text>
  <text style="stroke:none;fill:black;font-family:sans-serif;font-size:13;text-anchor:middle;" transform="matrix(1 0 0 1 1153.13 322)">Light</text>
  <text style="stroke:none;fill:black;font-family:sans-serif;font-size:13;text-anchor:middle;" transform="matrix(1 0 0 1 1449.84 322)">Regular</text>
  <text style="stroke:none;fill:black;font-family:sans-serif;font-size:13;text-anchor:middle;" transform="matrix(1 0 0 1 1746.56 322)">Medium</text>
  <text style="stroke:none;fill:black;font-family:sans-serif;font-size:13;text-anchor:middle;" transform="matrix(1 0 0 1 2043.27 322)">Semibold</text>
  <text style="stroke:none;fill:black;font-family:sans-serif;font-size:13;text-anchor:middle;" transform="matrix(1 0 0 1 2339.98 322)">Bold</text>
  <text style="stroke:none;fill:black;font-family:sans-serif;font-size:13;text-anchor:middle;" transform="matrix(1 0 0 1 2636.69 322)">Heavy</text>
  <text style="stroke:none;fill:black;font-family:sans-serif;font-size:13;text-anchor:middle;" transform="matrix(1 0 0 1 2933.4 322)">Black</text>
  <line style="fill:none;stroke:black;opacity:1;stroke-width:0.5;" x1="263" x2="3036" y1="1903" y2="1903"/>
  <g transform="matrix(1 0 0 1 263 1933)">
   <path d="M9.24805 0.830078Q10.8691 0.830078 12.2949 0.214844Q13.7207-0.400391 14.8096-1.49414Q15.8984-2.58789 16.5186-4.01367Q17.1387-5.43945 17.1387-7.05078Q17.1387-8.66211 16.5186-10.0879Q15.8984-11.5137 14.8047-12.6074Q13.7109-13.7012 12.2852-14.3164Q10.8594-14.9316 9.23828-14.9316Q7.62695-14.9316 6.20117-14.3164Q4.77539-13.7012 3.69141-12.6074Q2.60742-11.5137 1.9873-10.0879Q1.36719-8.66211 1.36719-7.05078Q1.36719-5.43945 1.9873-4.01367Q2.60742-2.58789 3.69629-1.49414Q4.78516-0.400391 6.21094 0.214844Q7.63672 0.830078 9.24805 0.830078ZM9.24805-0.654297Q7.91992-0.654297 6.7627-1.14746Q5.60547-1.64062 4.73145-2.51953Q3.85742-3.39844 3.36426-4.56055Q2.87109-5.72266 2.87109-7.05078Q2.87109-8.37891 3.35938-9.54102Q3.84766-10.7031 4.72168-11.582Q5.5957-12.4609 6.75293-12.9541Q7.91016-13.4473 9.23828-13.4473Q10.5762-13.4473 11.7334-12.9541Q12.8906-12.4609 13.7695-11.582Q14.6484-10.7031 15.1465-9.54102Q15.6445-8.37891 15.6445-7.05078Q15.6445-5.72266 15.1514-4.56055Q14.6582-3.39844 13.7842-2.51953Q12.9102-1.64062 11.748-1.14746Q10.5859-0.654297 9.24805-0.654297ZM5.6543-7.05078Q5.6543-6.72852 5.85938-6.52832Q6.06445-6.32812 6.40625-6.32812L8.51562-6.32812L8.51562-4.20898Q8.51562-3.88672 8.71094-3.67676Q8.90625-3.4668 9.23828-3.4668Q9.56055-3.4668 9.77051-3.67676Q9.98047-3.88672 9.98047-4.20898L9.98047-6.32812L12.0898-6.32812Q12.4219-6.32812 12.627-6.52832Q12.832-6.72852 12.832-7.05078Q12.832-7.38281 12.627-7.58789Q12.4219-7.79297 12.0898-7.79297L9.98047-7.79297L9.98047-9.90234Q9.98047-10.2344 9.77051-10.4443Q9.56055-10.6543 9.23828-10.6543Q8.90625-10.6543 8.71094-10.4443Q8.51562-10.2344 8.51562-9.90234L8.51562-7.79297L6.40625-7.79297Q6.06445-7.79297 5.85938-7.58789Q5.6543-7.38281 5.6543-7.05078Z"/>
  </g>
  <g transform="matrix(1 0 0 1 281.867 1933)">
   <path d="M11.709 2.91016Q13.75 2.91016 15.5518 2.12891Q17.3535 1.34766 18.7305-0.0292969Q20.1074-1.40625 20.8887-3.20801Q21.6699-5.00977 21.6699-7.05078Q21.6699-9.0918 20.8887-10.8936Q20.1074-12.6953 18.7305-14.0723Q17.3535-15.4492 15.5469-16.2305Q13.7402-17.0117 11.6992-17.0117Q9.6582-17.0117 7.85645-16.2305Q6.05469-15.4492 4.68262-14.0723Q3.31055-12.6953 2.5293-10.8936Q1.74805-9.0918 1.74805-7.05078Q1.74805-5.00977 2.5293-3.20801Q3.31055-1.40625 4.6875-0.0292969Q6.06445 1.34766 7.86621 2.12891Q9.66797 2.91016 11.709 2.91016ZM11.709 1.25Q9.98047 1.25 8.47656 0.605469Q6.97266-0.0390625 5.83496-1.17676Q4.69727-2.31445 4.05762-3.81836Q3.41797-5.32227 3.41797-7.05078Q3.41797-8.7793 4.05762-10.2832Q4.69727-11.7871 5.83008-12.9297Q6.96289-14.0723 8.4668-14.7119Q9.9707-15.3516 11.6992-15.3516Q13.4277-15.3516 14.9316-14.7119Q16.4355-14.0723 17.5781-12.9297Q18.7207-11.7871 19.3652-10.2832Q20.0098-8.7793 20.0098-7.05078Q20.0098-5.32227 19.3701-3.81836Q18.7305-2.31445 17.5928-1.17676Q16.4551-0.0390625 14.9463 0.605469Q13.4375 1.25 11.709 1.25ZM7.17773-7.05078Q7.17773-6.69922 7.41211-6.47461Q7.64648-6.25 8.01758-6.25L10.8887-6.25L10.8887-3.36914Q10.8887-2.99805 11.1133-2.76855Q11.3379-2.53906 11.6895-2.53906Q12.0605-2.53906 12.29-2.76855Q12.5195-2.99805 12.5195-3.36914L12.5195-6.25L15.4004-6.25Q15.7715-6.25 16.001-6.47461Q16.2305-6.69922 16.2305-7.05078Q16.2305-7.42188 16.001-7.65137Q15.7715-7.88086 15.4004-7.88086L12.5195-7.88086L12.5195-10.752Q12.5195-11.1328 12.29-11.3623Q12.0605-11.5918 11.6895-11.5918Q11.3379-11.5918 11.1133-11.3574Q10.8887-11.123 10.8887-10.752L10.8887-7.88086L8.01758-7.88086Q7.63672-7.88086 7.40723-7.65137Q7.17773-7.42188 7.17773-7.05078Z"/>
  </g>
  <g transform="matrix(1 0 0 1 305.646 1933)">
   <path d="M14.9707 5.66406Q17.0605 5.66406 18.96 5.01465Q20.8594 4.36523 22.4512 3.19336Q24.043 2.02148 25.2197 0.429688Q26.3965-1.16211 27.0459-3.06641Q27.6953-4.9707 27.6953-7.05078Q27.6953-9.14062 27.0459-11.04Q26.3965-12.9395 25.2197-14.5312Q24.043-16.123 22.4512-17.2998Q20.8594-18.4766 18.9551-19.126Q17.0508-19.7754 14.9609-19.7754Q12.8711-19.7754 10.9717-19.126Q9.07227-18.4766 7.48535-17.2998Q5.89844-16.123 4.72168-14.5312Q3.54492-12.9395 2.90039-11.04Q2.25586-9.14062 2.25586-7.05078Q2.25586-4.9707 2.90527-3.06641Q3.55469-1.16211 4.72656 0.429688Q5.89844 2.02148 7.49023 3.19336Q9.08203 4.36523 10.9814 5.01465Q12.8809 5.66406 14.9707 5.66406ZM14.9707 3.84766Q13.1641 3.84766 11.5283 3.2959Q9.89258 2.74414 8.53516 1.74805Q7.17773 0.751953 6.17676-0.610352Q5.17578-1.97266 4.62891-3.6084Q4.08203-5.24414 4.08203-7.05078Q4.08203-8.86719 4.62891-10.5029Q5.17578-12.1387 6.17188-13.501Q7.16797-14.8633 8.52539-15.8594Q9.88281-16.8555 11.5186-17.4023Q13.1543-17.9492 14.9609-17.9492Q16.7773-17.9492 18.4131-17.4023Q20.0488-16.8555 21.4111-15.8594Q22.7734-14.8633 23.7695-13.501Q24.7656-12.1387 25.3174-10.5029Q25.8691-8.86719 25.8691-7.05078Q25.8789-5.24414 25.332-3.6084Q24.7852-1.97266 23.7842-0.610352Q22.7832 0.751953 21.4209 1.74805Q20.0586 2.74414 18.4229 3.2959Q16.7871 3.84766 14.9707 3.84766ZM9.19922-7.05078Q9.19922-6.66992 9.45801-6.4209Q9.7168-6.17188 10.1172-6.17188L14.0625-6.17188L14.0625-2.2168Q14.0625-1.81641 14.3115-1.55762Q14.5605-1.29883 14.9512-1.29883Q15.3516-1.29883 15.6104-1.55273Q15.8691-1.80664 15.8691-2.2168L15.8691-6.17188L19.8242-6.17188Q20.2246-6.17188 20.4785-6.4209Q20.7324-6.66992 20.7324-7.05078Q20.7324-7.46094 20.4785-7.71484Q20.2246-7.96875 19.8242-7.96875L15.8691-7.96875L15.8691-11.9141Q15.8691-12.3242 15.6104-12.583Q15.3516-12.8418 14.9512-12.8418Q14.5605-12.8418 14.3115-12.583Q14.0625-12.3242 14.0625-11.9141L14.0625-7.96875L10.1172-7.96875Q9.70703-7.96875 9.45312-7.71484Q9.19922-7.46094 9.19922-7.05078Z"/>
  </g>
  <text style="stroke:none;fill:black;font-family:sans-serif;font-size:13;font-weight:bold;" transform="matrix(1 0 0 1 263 1953)">Design Variations</text>
  <text style="stroke:none;fill:black;font-family:sans-serif;font-size:13;" transform="matrix(1 0 0 1 263 1971)">Symbols are supported in up to nine weights and three scales.</text>
  <text style="stroke:none;fill:black;font-family:sans-serif;font-size:13;" transform="matrix(1 0 0 1 263 1989)">For optimal layout with text and other symbols, vertically align</text>
  <text style="stroke:none;fill:black;font-family:sans-serif;font-size:13;" transform="matrix(1 0 0 1 263 2007)">symbols with the adjacent text.</text>
  <line style="fill:none;stroke:#00AEEF;stroke-width:0.5;opacity:1.0;" x1="776" x2="776" y1="1919" y2="1933"/>
  <g transform="matrix(1 0 0 1 776 1933)">
   <path d="M3.31055 0.15625Q3.70117 0.15625 3.91602-0.00976562Q4.13086-0.175781 4.26758-0.585938L5.52734-4.0332L11.2891-4.0332L12.5488-0.585938Q12.6855-0.175781 12.9004-0.00976562Q13.1152 0.15625 13.4961 0.15625Q13.8867 0.15625 14.1162-0.0585938Q14.3457-0.273438 14.3457-0.644531Q14.3457-0.869141 14.2383-1.17188L9.6582-13.3691Q9.48242-13.8184 9.17969-14.043Q8.87695-14.2676 8.4082-14.2676Q7.5-14.2676 7.17773-13.3789L2.59766-1.16211Q2.49023-0.859375 2.49023-0.634766Q2.49023-0.263672 2.70996-0.0537109Q2.92969 0.15625 3.31055 0.15625ZM6.00586-5.51758L8.37891-12.0898L8.42773-12.0898L10.8008-5.51758Z"/>
  </g>
  <line style="fill:none;stroke:#00AEEF;stroke-width:0.5;opacity:1.0;" x1="793.197" x2="793.197" y1="1919" y2="1933"/>
  <text style="stroke:none;fill:black;font-family:sans-serif;font-size:13;font-weight:bold;" transform="matrix(1 0 0 1 776 1953)">Margins</text>
  <text style="stroke:none;fill:black;font-family:sans-serif;font-size:13;" transform="matrix(1 0 0 1 776 1971)">Leading and trailing margins on the left and right side of each symbol</text>
  <text style="stroke:none;fill:black;font-family:sans-serif;font-size:13;" transform="matrix(1 0 0 1 776 1989)">can be adjusted by modifying the x-location of the margin guidelines.</text>
  <text style="stroke:none;fill:black;font-family:sans-serif;font-size:13;" transform="matrix(1 0 0 1 776 2007)">Modifications are automatically applied proportionally to all</text>
  <text style="stroke:none;fill:black;font-family:sans-serif;font-size:13;" transform="matrix(1 0 0 1 776 2025)">scales and weights.</text>
  <g transform="matrix(1 0 0 1 1289 1933)">
   <path d="M2.8418 1.86523L4.54102 3.57422Q5.18555 4.22852 5.90332 4.17969Q6.62109 4.13086 7.31445 3.35938L18.0078-8.42773L17.041-9.4043L6.42578 2.27539Q6.16211 2.57812 5.89355 2.61719Q5.625 2.65625 5.27344 2.30469L4.10156 1.14258Q3.75 0.791016 3.79395 0.522461Q3.83789 0.253906 4.14062-0.0195312L15.6152-10.8203L14.6387-11.7871L3.04688-0.898438Q2.30469-0.214844 2.25098 0.498047Q2.19727 1.21094 2.8418 1.86523ZM9.25781-16.3281Q8.94531-16.0254 8.90625-15.6348Q8.86719-15.2441 9.04297-14.9512Q9.21875-14.6777 9.55566-14.541Q9.89258-14.4043 10.3809-14.5215Q11.4746-14.7754 12.5977-14.7314Q13.7207-14.6875 14.7949-13.9844L14.209-12.5293Q13.9551-11.9043 14.0674-11.4404Q14.1797-10.9766 14.5801-10.5664L16.875-8.25195Q17.2363-7.88086 17.5781-7.82227Q17.9199-7.76367 18.3398-7.8418L19.4043-8.03711L20.0684-7.36328L20.0293-6.80664Q20-6.43555 20.1221-6.12305Q20.2441-5.81055 20.6055-5.44922L21.3672-4.70703Q21.7285-4.3457 22.1533-4.33105Q22.5781-4.31641 22.9297-4.66797L25.8398-7.58789Q26.1914-7.93945 26.1816-8.35449Q26.1719-8.76953 25.8105-9.13086L25.0391-9.89258Q24.6875-10.2539 24.3799-10.3857Q24.0723-10.5176 23.7109-10.4883L23.1348-10.4395L22.4902-11.0742L22.7344-12.1973Q22.832-12.6172 22.6953-12.9834Q22.5586-13.3496 22.1191-13.7891L19.9219-15.9766Q18.6719-17.2168 17.2607-17.8369Q15.8496-18.457 14.4189-18.4814Q12.9883-18.5059 11.665-17.959Q10.3418-17.4121 9.25781-16.3281ZM10.752-15.957Q11.6602-16.6211 12.7002-16.9043Q13.7402-17.1875 14.8047-17.085Q15.8691-16.9824 16.8701-16.5137Q17.8711-16.0449 18.7012-15.2051L21.1328-12.793Q21.3086-12.6172 21.3525-12.4512Q21.3965-12.2852 21.3379-12.0312L21.0156-10.5469L22.5195-9.0625L23.5059-9.12109Q23.6914-9.13086 23.7891-9.09668Q23.8867-9.0625 24.0332-8.91602L24.6094-8.33984L22.168-5.89844L21.5918-6.47461Q21.4453-6.62109 21.4062-6.71875Q21.3672-6.81641 21.377-7.01172L21.4453-7.98828L19.9512-9.47266L18.4277-9.21875Q18.1836-9.16992 18.042-9.2041Q17.9004-9.23828 17.7148-9.41406L15.7129-11.416Q15.5176-11.5918 15.4932-11.7529Q15.4688-11.9141 15.5859-12.1875L16.4648-14.2773Q15.293-15.3711 13.8281-15.791Q12.3633-16.2109 10.8398-15.7617Q10.7227-15.7324 10.6885-15.8057Q10.6543-15.8789 10.752-15.957Z"/>
  </g>
  <text style="stroke:none;fill:black;font-family:sans-serif;font-size:13;font-weight:bold;" transform="matrix(1 0 0 1 1289 1953)">Exporting</text>
  <text style="stroke:none;fill:black;font-family:sans-serif;font-size:13;" transform="matrix(1 0 0 1 1289 1971)">Symbols should be outlined when exporting to ensure the</text>
  <text style="stroke:none;fill:black;font-family:sans-serif;font-size:13;" transform="matrix(1 0 0 1 1289 1989)">design is preserved when submitting to Xcode.</text>
  <text id="template-version" style="stroke:none;fill:black;font-family:sans-serif;font-size:13;text-anchor:end;" transform="matrix(1 0 0 1 3036 1933)">Template v.3.0</text>
  <text style="stroke:none;fill:black;font-family:sans-serif;font-size:13;text-anchor:end;" transform="matrix(1 0 0 1 3036 1951)">Requires Xcode 13 or greater</text>
  <text id="descriptive-name" style="stroke:none;fill:black;font-family:sans-serif;font-size:13;text-anchor:end;" transform="matrix(1 0 0 1 3036 1969)">Generated from hifispeaker.2</text>
  <text style="stroke:none;fill:black;font-family:sans-serif;font-size:13;text-anchor:end;" transform="matrix(1 0 0 1 3036 1987)">Typeset at 100 points</text>
  <text style="stroke:none;fill:black;font-family:sans-serif;font-size:13;" transform="matrix(1 0 0 1 263 726)">Small</text>
  <text style="stroke:none;fill:black;font-family:sans-serif;font-size:13;" transform="matrix(1 0 0 1 263 1156)">Medium</text>
  <text style="stroke:none;fill:black;font-family:sans-serif;font-size:13;" transform="matrix(1 0 0 1 263 1586)">Large</text>
 </g>
 <g id="Guides">
  <g id="H-reference" style="fill:#27AAE1;stroke:none;" transform="matrix(1 0 0 1 339 696)">
   <path d="M0.993347 0L3.6377 0L29.3282-67.1326L30.0301-67.1326L30.0301-70.459L28.1227-70.459ZM11.6882-24.4797L46.9818-24.4797L46.2311-26.7288L12.4382-26.7288ZM55.1193 0L57.7637 0L30.6381-70.459L29.4327-70.459L29.4327-67.1326Z"/>
  </g>
  <line id="Baseline-S" style="fill:none;stroke:#27AAE1;opacity:1;stroke-width:0.5;" x1="263" x2="3036" y1="696" y2="696"/>
  <line id="Capline-S" style="fill:none;stroke:#27AAE1;opacity:1;stroke-width:0.5;" x1="263" x2="3036" y1="625.541" y2="625.541"/>
  <g id="H-reference" style="fill:#27AAE1;stroke:none;" transform="matrix(1 0 0 1 339 1126)">
   <path d="M0.993347 0L3.6377 0L29.3282-67.1326L30.0301-67.1326L30.0301-70.459L28.1227-70.459ZM11.6882-24.4797L46.9818-24.4797L46.2311-26.7288L12.4382-26.7288ZM55.1193 0L57.7637 0L30.6381-70.459L29.4327-70.459L29.4327-67.1326Z"/>
  </g>
  <line id="Baseline-M" style="fill:none;stroke:#27AAE1;opacity:1;stroke-width:0.5;" x1="263" x2="3036" y1="1126" y2="1126"/>
  <line id="Capline-M" style="fill:none;stroke:#27AAE1;opacity:1;stroke-width:0.5;" x1="263" x2="3036" y1="1055.54" y2="1055.54"/>
  <g id="H-reference" style="fill:#27AAE1;stroke:none;" transform="matrix(1 0 0 1 339 1556)">
   <path d="M0.993347 0L3.6377 0L29.3282-67.1326L30.0301-67.1326L30.0301-70.459L28.1227-70.459ZM11.6882-24.4797L46.9818-24.4797L46.2311-26.7288L12.4382-26.7288ZM55.1193 0L57.7637 0L30.6381-70.459L29.4327-70.459L29.4327-67.1326Z"/>
  </g>
  <line id="Baseline-L" style="fill:none;stroke:#27AAE1;opacity:1;stroke-width:0.5;" x1="263" x2="3036" y1="1556" y2="1556"/>
  <line id="Capline-L" style="fill:none;stroke:#27AAE1;opacity:1;stroke-width:0.5;" x1="263" x2="3036" y1="1485.54" y2="1485.54"/>
  <line id="left-margin-Ultralight-S" style="fill:none;stroke:#00AEEF;stroke-width:0.5;opacity:1.0;" x1="510.642" x2="510.642" y1="600.785" y2="720.121"/>
  <line id="right-margin-Ultralight-S" style="fill:none;stroke:#00AEEF;stroke-width:0.5;opacity:1.0;" x1="608.78" x2="608.78" y1="600.785" y2="720.121"/>
  <line id="left-margin-Regular-S" style="fill:none;stroke:#00AEEF;stroke-width:0.5;opacity:1.0;" x1="1395.3" x2="1395.3" y1="600.785" y2="720.121"/>
  <line id="right-margin-Regular-S" style="fill:none;stroke:#00AEEF;stroke-width:0.5;opacity:1.0;" x1="1504.39" x2="1504.39" y1="600.785" y2="720.121"/>
  <line id="left-margin-Black-S" style="fill:none;stroke:#00AEEF;stroke-width:0.5;opacity:1.0;" x1="2875.17" x2="2875.17" y1="600.785" y2="720.121"/>
  <line id="right-margin-Black-S" style="fill:none;stroke:#00AEEF;stroke-width:0.5;opacity:1.0;" x1="2991.63" x2="2991.63" y1="600.785" y2="720.121"/>
 </g>
 <g id="Symbols">
  <g id="Black-S" transform="matrix(1 0 0 1 2875.17 696)">
   <path d="M21.1914-18.457L35.4004-18.457L35.4004-29.1016L22.8516-29.1016Q21.4844-29.1016 20.9473-29.7119Q20.4102-30.3223 20.4102-31.5918L20.4102-71.4844Q20.4102-72.7539 20.9473-73.3398Q21.4844-73.9258 22.8516-73.9258L49.8047-73.9258Q50.8301-73.9258 51.3672-73.584Q51.9043-73.2422 52.0996-72.5586L52.1484-72.4121Q53.2715-72.6562 54.4678-72.7295Q55.6641-72.8027 56.8848-72.8027L62.8906-72.8027L62.8906-73.1445Q62.8906-78.5645 59.8633-81.5674Q56.8359-84.5703 51.4648-84.5703L21.1914-84.5703Q15.7715-84.5703 12.7686-81.5674Q9.76562-78.5645 9.76562-73.1445L9.76562-29.8828Q9.76562-24.5605 12.7686-21.5088Q15.7715-18.457 21.1914-18.457ZM29.1504-64.0137Q29.1504-61.084 31.1035-59.0576Q33.0566-57.0312 35.8887-56.8848Q35.9375-56.8848 35.9375-56.8848Q35.9375-56.8848 35.9863-56.8848Q36.084-57.373 36.2061-57.8613Q36.3281-58.3496 36.4746-58.8379Q36.7676-59.668 37.085-60.4736Q37.4023-61.2793 37.7441-62.0117Q37.0117-61.5234 36.2793-61.5234Q35.3027-61.5234 34.5703-62.2559Q33.8379-62.9883 33.8379-64.0137Q33.8379-65.0879 34.5459-65.8203Q35.2539-66.5527 36.2793-66.5527Q37.2559-66.5527 38.0371-65.8447Q38.8184-65.1367 38.8184-63.8672Q39.5508-64.9902 40.4541-66.0156Q41.3574-67.041 42.334-67.9199Q41.4062-69.3848 39.8193-70.2881Q38.2324-71.1914 36.2793-71.1914Q33.3008-71.1914 31.2256-69.1162Q29.1504-67.041 29.1504-64.0137ZM25.3418-43.1152Q25.3418-40.4297 26.4893-38.1592Q27.6367-35.8887 29.6143-34.375Q31.5918-32.8613 34.082-32.3242Q34.375-32.2754 34.7168-32.2266Q35.0586-32.1777 35.4004-32.1289L35.4004-39.5508Q35.3516-39.5996 35.2295-39.5996Q35.1074-39.5996 35.0098-39.6484Q33.9355-40.0879 33.2764-41.0156Q32.6172-41.9434 32.6172-43.1152Q32.6172-44.2383 33.252-45.166Q33.8867-46.0938 34.8633-46.4844Q35.0098-46.582 35.1562-46.6064Q35.3027-46.6309 35.4004-46.6797L35.4004-51.3184Q35.4004-52.0508 35.4492-52.7588Q35.498-53.4668 35.5469-54.1016Q35.3516-54.1016 35.1074-54.0771Q34.8633-54.0527 34.6191-54.0039Q32.0312-53.6133 29.9072-52.0752Q27.7832-50.5371 26.5625-48.2178Q25.3418-45.8984 25.3418-43.1152ZM42.3828-52.002L42.3828 0.341797Q42.3828 6.83594 46.0449 10.498Q49.707 14.1602 56.2012 14.1602L92.8711 14.1602Q99.4141 14.1602 103.052 10.498Q106.689 6.83594 106.689 0.341797L106.689-52.002Q106.689-58.4961 103.052-62.1582Q99.4141-65.8203 92.8711-65.8203L56.2012-65.8203Q49.707-65.8203 46.0449-62.1582Q42.3828-58.4961 42.3828-52.002ZM55.2246-49.9512Q55.2246-52.9785 58.252-52.9785L90.8691-52.9785Q93.8477-52.9785 93.8477-49.9512L93.8477-1.66016Q93.8477 1.31836 90.8691 1.31836L58.252 1.31836Q55.2246 1.31836 55.2246-1.66016ZM74.5605-2.29492Q78.2227-2.29492 81.25-4.10156Q84.2773-5.9082 86.0596-8.91113Q87.8418-11.9141 87.8418-15.5762Q87.8418-19.3359 86.0596-22.3389Q84.2773-25.3418 81.25-27.0996Q78.2227-28.8574 74.5605-28.8574Q70.8984-28.9062 67.8711-27.124Q64.8438-25.3418 63.0615-22.3389Q61.2793-19.3359 61.2793-15.5762Q61.2793-11.9141 63.0615-8.91113Q64.8438-5.9082 67.8711-4.10156Q70.8984-2.29492 74.5605-2.29492ZM74.5605-12.0117Q73.0469-12.0117 71.9727-13.0615Q70.8984-14.1113 70.8984-15.5762Q70.8984-17.1875 71.9727-18.2129Q73.0469-19.2383 74.5605-19.2383Q76.0742-19.2383 77.124-18.2129Q78.1738-17.1875 78.1738-15.5762Q78.1738-14.1113 77.124-13.0615Q76.0742-12.0117 74.5605-12.0117ZM74.5117-32.2266Q78.1738-32.2266 80.7373-34.7412Q83.3008-37.2559 83.252-40.918Q83.2031-44.5801 80.6885-47.0947Q78.1738-49.6094 74.5117-49.6582Q70.8984-49.6582 68.3838-47.1191Q65.8691-44.5801 65.8691-40.918Q65.8691-37.2559 68.3838-34.7412Q70.8984-32.2266 74.5117-32.2266ZM74.5605-38.7695Q73.6328-38.7695 72.998-39.3799Q72.3633-39.9902 72.3633-40.918Q72.3633-41.8945 72.998-42.5049Q73.6328-43.1152 74.5605-43.1152Q75.3906-43.1152 76.0498-42.4805Q76.709-41.8457 76.709-40.918Q76.709-39.9902 76.0742-39.3799Q75.4395-38.7695 74.5605-38.7695Z"/>
  </g>
  <g id="Regular-S" transform="matrix(1 0 0 1 1395.3 696)">
   <path d="M20.8496-15.5273L36.377-15.5273L36.377-22.168L21.1426-22.168Q18.7988-22.168 17.6025-23.3643Q16.4062-24.5605 16.4062-26.8066L16.4062-68.75Q16.4062-70.9961 17.6025-72.2168Q18.7988-73.4375 21.1426-73.4375L46.5332-73.4375Q47.2168-73.4375 47.998-73.2422Q48.7793-73.0469 49.4141-72.6562L49.5117-72.5098Q50.3906-72.6562 51.4404-72.7539Q52.4902-72.8516 53.2715-72.8516L57.5195-72.8516L57.373-73.291Q56.25-76.416 53.8086-78.2471Q51.3672-80.0781 46.875-80.0781L20.8496-80.0781Q15.332-80.0781 12.5488-77.2705Q9.76562-74.4629 9.76562-68.8477L9.76562-26.709Q9.76562-21.0938 12.5244-18.3105Q15.2832-15.5273 20.8496-15.5273ZM27.5879-62.5Q27.5879-59.3262 29.834-57.0557Q32.0801-54.7852 35.2539-54.7852Q35.6934-54.7852 35.9131-54.8096Q36.1328-54.834 36.377-54.8828Q36.377-55.2246 36.377-55.4932Q36.377-55.7617 36.377-56.0547Q36.377-56.9824 36.4502-57.8613Q36.5234-58.7402 36.6211-59.375Q36.4258-59.1309 35.2539-59.1309Q33.8379-59.1309 32.8369-60.083Q31.8359-61.0352 31.8359-62.5Q31.8359-63.8672 32.8369-64.8682Q33.8379-65.8691 35.2539-65.8691Q36.1328-65.8691 36.9873-65.4053Q37.8418-64.9414 38.1348-64.5996Q38.5254-65.4785 39.2334-66.5283Q39.9414-67.5781 40.4297-68.0664Q39.6484-68.9453 38.2324-69.5312Q36.8164-70.1172 35.2539-70.166Q32.0801-70.166 29.834-67.9199Q27.5879-65.6738 27.5879-62.5ZM21.7773-39.1113Q21.7773-35.4004 23.584-32.3486Q25.3906-29.2969 28.4424-27.4902Q31.4941-25.6836 35.2539-25.6836Q35.6445-25.6836 35.8887-25.6836Q36.1328-25.6836 36.377-25.6836L36.377-33.9844Q36.1816-33.9355 35.8887-33.9355Q35.5957-33.9355 35.2051-33.9355Q33.0078-33.9355 31.5186-35.4248Q30.0293-36.9141 30.0293-39.0625Q30.0293-41.2598 31.5674-42.7734Q33.1055-44.2871 35.4004-44.2871Q35.6445-44.2871 35.9131-44.2627Q36.1816-44.2383 36.377-44.1895L36.377-50.7812Q36.377-51.1719 36.377-51.6113Q36.377-52.0508 36.377-52.4902Q36.2305-52.4902 35.9375-52.5391Q35.6445-52.5879 35.2539-52.5879Q31.4941-52.5879 28.4424-50.7812Q25.3906-48.9746 23.584-45.8984Q21.7773-42.8223 21.7773-39.1113ZM42.0898-56.1523L42.0898-1.41602Q42.0898 4.05273 44.7754 6.81152Q47.4609 9.57031 52.8809 9.57031L88.4766 9.57031Q93.8965 9.57031 96.6064 6.81152Q99.3164 4.05273 99.3164-1.41602L99.3164-56.1523Q99.3164-61.5723 96.6064-64.3555Q93.8965-67.1387 88.4766-67.1387L52.8809-67.1387Q47.4609-67.1387 44.7754-64.3555Q42.0898-61.5723 42.0898-56.1523ZM49.1211-56.1035Q49.1211-60.0586 53.1738-60.0586L88.1836-60.0586Q92.2852-60.0586 92.2852-56.1035L92.2852-1.46484Q92.2852 2.53906 88.1836 2.53906L53.1738 2.53906Q49.1211 2.53906 49.1211-1.46484ZM70.6543-2.73438Q74.8047-2.73438 78.2227-4.73633Q81.6406-6.73828 83.667-10.1318Q85.6934-13.5254 85.6934-17.7246Q85.6934-21.875 83.667-25.2441Q81.6406-28.6133 78.2227-30.6152Q74.8047-32.6172 70.6543-32.666Q66.5527-32.7148 63.1592-30.6885Q59.7656-28.6621 57.7393-25.2441Q55.7129-21.8262 55.7129-17.7246Q55.7129-13.5742 57.7393-10.1807Q59.7656-6.78711 63.1592-4.76074Q66.5527-2.73438 70.6543-2.73438ZM70.6543-11.8652Q68.2617-11.8652 66.5527-13.5498Q64.8438-15.2344 64.8438-17.7246Q64.8438-20.2148 66.5283-21.9238Q68.2129-23.6328 70.6543-23.6328Q73.1445-23.6328 74.8535-21.9238Q76.5625-20.2148 76.5625-17.7246Q76.5625-15.2344 74.8535-13.5498Q73.1445-11.8652 70.6543-11.8652ZM70.6543-37.793Q74.2188-37.793 76.7578-40.2832Q79.2969-42.7734 79.248-46.3379Q79.1992-49.9023 76.7334-52.3438Q74.2676-54.7852 70.6543-54.7852Q67.1387-54.8828 64.6484-52.3926Q62.1582-49.9023 62.1582-46.3379Q62.1582-42.7734 64.6484-40.2832Q67.1387-37.793 70.6543-37.793ZM70.6543-42.627Q69.1406-42.627 68.0664-43.7012Q66.9922-44.7754 66.9922-46.3379Q66.9922-47.9492 68.0664-49.0234Q69.1406-50.0977 70.6543-50.0977Q72.2168-50.0977 73.3154-48.9746Q74.4141-47.8516 74.4141-46.3379Q74.4141-44.7754 73.3154-43.7012Q72.2168-42.627 70.6543-42.627Z"/>
  </g>
  <g id="Ultralight-S" transform="matrix(1 0 0 1 510.642 696)">
   <path d="M16.7175-15.0734L33.8791-15.0734L33.8791-17.2638L17.0105-17.2638Q14.576-17.2638 13.266-18.5963Q11.956-19.9287 11.956-22.2206L11.956-69.5221Q11.956-71.859 13.266-73.193Q14.576-74.527 17.0105-74.527L46.8964-74.527Q49.2149-74.527 50.5184-73.2422Q51.8219-71.9574 51.8661-69.7502L51.873-68.2411Q52.0706-68.2518 52.2575-68.2587Q52.4445-68.2655 52.681-68.2655L54.1138-68.2655L54.1039-69.976Q54.0703-73.056 52.174-74.8642Q50.2777-76.6724 47.1931-76.6724L16.7175-76.6724Q13.6063-76.6724 11.6859-74.8184Q9.76562-72.9645 9.76562-69.7556L9.76562-21.9864Q9.76562-18.8232 11.6844-16.9483Q13.6032-15.0734 16.7175-15.0734ZM25.045-61.319Q25.045-58.4633 27.0866-56.4198Q29.1283-54.3762 31.9847-54.3762Q32.6965-54.3762 33.1432-54.4689Q33.5899-54.5616 33.8791-54.6555Q33.8791-54.8157 33.8791-55.0163Q33.8791-55.217 33.8791-55.4192Q33.8791-55.7564 33.8844-56.0905Q33.8898-56.4247 33.8966-56.7863Q33.1566-56.4514 31.9847-56.4514Q29.9324-56.4514 28.5229-57.8579Q27.1133-59.2644 27.1133-61.319Q27.1133-63.4132 28.5229-64.8228Q29.9324-66.2323 31.9847-66.2323Q33.3176-66.2323 34.3761-65.6776Q35.4347-65.123 36.0458-64.2365Q36.2549-64.5248 36.6222-64.9391Q36.9896-65.3534 37.4779-65.7509Q36.6058-66.8564 35.1444-67.5785Q33.683-68.3006 31.9847-68.3044Q29.1283-68.3044 27.0866-66.2624Q25.045-64.2204 25.045-61.319ZM18.5081-36.2053Q18.5081-32.5394 20.3148-29.533Q22.1214-26.5266 25.1278-24.7429Q28.1342-22.9591 31.8031-22.9591Q32.3753-22.9591 32.9144-23.0045Q33.4534-23.0499 33.8791-23.1407L33.8791-29.8523Q33.5022-29.8035 32.9369-29.7127Q32.3715-29.6219 31.7993-29.6219Q29.0573-29.6219 27.1591-31.5197Q25.2609-33.4175 25.2609-36.1565Q25.2609-38.8527 27.1626-40.7524Q29.0642-42.6521 31.813-42.6521Q32.3753-42.6521 32.9388-42.5823Q33.5022-42.5125 33.8791-42.4187L33.8791-47.8294Q33.8791-48.2201 33.8791-48.5462Q33.8791-48.8724 33.8791-49.2661Q33.4602-49.3118 33.0086-49.3607Q32.5569-49.4095 31.8031-49.4095Q28.1342-49.4095 25.1278-47.6254Q22.1214-45.8412 20.3148-42.8333Q18.5081-39.8254 18.5081-36.2053ZM36.9583-56.7429L36.9583-2.18811Q36.9583 1.87302 39.0537 4.01878Q41.1491 6.16455 45.2522 6.16455L80.0301 6.16455Q84.1331 6.16455 86.253 4.01878Q88.3728 1.87302 88.3728-2.18811L88.3728-56.7429Q88.3728-60.891 86.2759-63.0386Q84.1789-65.1863 80.0301-65.1863L45.2522-65.1863Q41.1491-65.1863 39.0537-63.0386Q36.9583-60.891 36.9583-56.7429ZM39.1312-56.694Q39.1312-62.9646 45.3178-62.9646L79.9644-62.9646Q86.1549-62.9646 86.1549-56.694L86.1549-2.23694Q86.1549 3.99246 79.9644 3.99246L45.3178 3.99246Q39.1312 3.99246 39.1312-2.23694ZM62.6167-2.96173Q66.8579-2.96173 70.2988-5.03159Q73.7396-7.10144 75.7885-10.5633Q77.8374-14.0251 77.8374-18.2243Q77.8374-22.4655 75.7885-25.9026Q73.7396-29.3396 70.2988-31.3644Q66.8579-33.3893 62.6167-33.3923Q58.4244-33.4412 54.9854-31.3923Q51.5465-29.3434 49.4972-25.9026Q47.448-22.4617 47.448-18.2243Q47.448-14.0282 49.4972-10.5667Q51.5465-7.10526 54.9854-5.03349Q58.4244-2.96173 62.6167-2.96173ZM62.6167-10.5934Q59.4978-10.5934 57.2437-12.8002Q54.9896-15.007 54.9896-18.2243Q54.9896-21.4867 57.2193-23.6721Q59.449-25.8575 62.6167-25.8575Q65.8333-25.8575 68.0645-23.6721Q70.2957-21.4867 70.2957-18.2243Q70.2957-15.007 68.0645-12.8002Q65.8333-10.5934 62.6167-10.5934ZM62.6167-40.3358Q65.863-40.3358 68.198-42.6445Q70.533-44.9532 70.5292-48.1544Q70.5261-51.4008 68.219-53.6377Q65.9119-55.8746 62.6167-55.9204Q59.4193-55.9273 57.0877-53.664Q54.7562-51.4008 54.7562-48.1544Q54.7562-44.8624 57.0648-42.5991Q59.3735-40.3358 62.6167-40.3358ZM62.6167-42.3996Q60.2402-42.3996 58.5758-44.0868Q56.9115-45.7741 56.9115-48.1544Q56.9115-50.5829 58.5533-52.2247Q60.1952-53.8666 62.6167-53.8666Q64.9963-53.8666 66.6855-52.1988Q68.3746-50.531 68.3746-48.1544Q68.3746-45.7741 66.7084-44.0868Q65.0421-42.3996 62.6167-42.3996Z"/>
  </g>
 </g>
</svg>
